<svg  viewBox="0 0 379 265" fill="none" xmlns="http://www.w3.org/2000/svg">
<g opacity="0.2" clip-path="url(#clip0_76_146)">
<path d="M173.599 176.062C165.35 226.061 123.593 258.335 71.8519 255.981C18.1194 253.542 -4.72183 225.721 0.824924 191.773C3.15741 177.083 13.5682 158.875 37.2913 159.953C48.4986 160.463 57.3165 169.681 55.8089 173.821C54.984 177.309 53.1636 181.11 52.6231 185.647C49.4088 205.585 58.9948 219.765 77.4271 220.616C99.1874 221.608 114.206 196.566 116.823 175.551C120.777 139.789 101.292 125.155 78.2235 124.105C66.6749 123.935 57.2596 127.367 55.24 127.991C39.1687 146.992 22.4999 143.05 19.9399 134.485C16.4127 125.155 25.8564 113.612 33.2521 110.436C40.1358 46.6245 35.5846 30.5725 36.5233 24.9572C37.8886 17.2998 54.5574 -0.964297 88.5206 0.595527C105.986 1.38962 125.414 10.0396 146.178 10.9755C173.514 12.2233 178.065 -0.255286 183.982 -4.19999e-05C187.936 0.170121 193.824 8.90514 191.093 24.9855C188.277 42.8242 174.566 68.2635 136.678 66.5336C113.95 65.4842 88.4921 51.304 74.099 41.1226C73.1603 54.4804 68.2394 82.4438 64.7122 102.012L65.3095 103.09C66.3051 102.778 82.4334 96.8225 103.54 97.7868C141.115 99.4884 181.934 124.275 173.599 176.033V176.062Z" fill="white"/>
<path d="M366.911 220.814C363.924 242.17 349.588 266.531 314.629 264.887C281.007 263.327 248.011 241.347 224.629 240.27C206.51 239.419 199.655 258.477 191.093 258.08C186.143 257.853 183.128 244.666 184.92 234.881C193.795 179.266 306.693 145.404 320.375 79.0973C324.642 58.1673 318.782 42.7392 299.98 41.86C281.206 40.9809 267.098 59.6987 264.708 82.8692C264.538 86.3859 264.737 89.222 264.339 90.952C264.424 95.8867 252.562 102.75 241.014 102.211C222.553 101.36 213.507 83.323 216.323 65.4843C222.724 27.3678 262.148 3.82867 306.977 5.92734C361.364 8.45142 385.969 40.2435 377.379 82.8409C364.55 145.319 276.058 179.607 256.488 188.909L256.431 189.958C265.988 190.412 302.739 202.692 318.896 203.43C349.218 204.848 352.774 192.681 359.345 192.993C364.607 193.248 368.845 208.591 366.968 220.843L366.911 220.814Z" fill="white"/>
</g>
<defs>
<clipPath id="clip0_76_146">
<rect width="379" height="265" fill="white"/>
</clipPath>
</defs>
</svg>

