<svg viewBox="0 0 995 350" fill="none" xmlns="http://www.w3.org/2000/svg">
<path opacity="0.1" d="M81.6889 184.395C74.0996 183.886 70.1053 180.515 70.1053 174.599C69.7724 168.301 74.0996 160.604 82.2881 153.416C98.9313 138.339 121.699 124.79 140.806 118.301C146.531 116.202 152.323 116.075 155.052 117.92C156.85 119.065 158.381 122.754 158.647 125.171C159.046 132.996 139.274 151.698 126.293 156.278C123.829 157.105 121.699 155.706 121.699 153.352C121.366 150.299 128.024 142.665 132.018 141.393C132.617 141.202 133.482 141.393 133.482 142.093C133.482 142.919 132.684 143.619 130.154 145.782C128.956 146.355 128.356 146.927 128.356 147.372C128.689 147.691 129.555 147.945 130.154 147.69C137.144 145.21 154.786 128.988 154.453 124.917C154.453 123.327 149.327 123.327 143.269 125.362C115.641 134.777 74.6988 164.802 75.3645 175.108C75.3645 182.55 95.3363 180.388 125.893 169.955C128.356 169.383 129.222 169.764 129.222 171.482C129.555 175.044 126.825 177.334 119.303 180.26C97.6664 188.339 73.7002 203.734 54.3275 221.418C38.8826 235.667 31.5597 246.545 31.9591 255.578C32.1588 264.166 40.7467 266.456 54.6604 261.621C72.9013 255.387 87.747 242.728 101.927 221.609C102.926 220.209 103.724 219.446 104.324 219.319C105.522 218.874 106.121 220.019 106.121 223.454C106.454 226.698 105.256 229.751 101.86 234.013C89.1451 251.189 73.6336 263.403 57.2567 268.81C47.2708 272.436 39.0824 272.754 34.2226 269.7C29.6291 266.965 26.3004 260.286 26.3004 253.288C25.9675 244.192 30.2282 234.586 39.6149 224.344C54.1944 208.377 74.8319 193.746 100.462 181.851C95.2032 183.632 87.0148 184.713 81.5558 184.523L81.6889 184.395ZM153.521 204.433C153.521 207.423 148.728 215.375 138.342 227.97C136.279 230.896 131.685 236.622 125.094 245.591C127.757 246.482 128.689 247.945 128.689 249.026C128.956 249.471 128.689 250.108 128.356 250.68C126.492 253.733 121.433 258.186 113.178 263.912C97.733 283.886 85.0176 298.899 74.0996 309.077C64.7129 318.428 53.1292 327.016 40.1475 335.222C26.7664 343.428 16.7139 348.199 10.0567 349.407C3.3994 350.743 0.00420097 349.789 0.00420097 346.863C-0.195517 342.283 6.72804 333.822 20.3089 321.863C31.5597 311.876 45.0074 301.38 60.3857 290.884C76.5628 279.624 89.2782 271.163 99.3307 265.12C104.989 260.413 110.715 253.288 116.906 243.937C110.182 245.273 104.989 245.4 100.596 244.192C95.0035 242.983 91.9411 240.566 90.8094 236.812C88.9454 230.706 102.992 220.146 132.084 205.324C136.944 203.034 141.738 201.316 146.331 200.362C150.925 199.535 153.587 200.935 153.587 204.497L153.521 204.433ZM93.4723 277.143C86.4822 280.133 74.8985 287.957 58.9211 299.853C51.9309 305.006 43.1433 312.067 32.4917 321.1C20.6417 331.214 14.8499 336.558 14.8499 337.639C14.8499 339.102 15.7153 339.675 17.2465 339.547C20.2423 338.848 26.6333 335.476 35.6872 329.433C44.8742 323.326 53.3289 316.901 61.5174 310.222C70.9041 302.398 81.5558 291.265 93.4057 277.207L93.4723 277.143ZM139.873 212.639C139.873 211.685 139.274 211.367 137.677 211.622C133.416 212.258 127.092 215.502 118.703 221.227C107.453 228.479 101.727 232.868 101.727 234.84C101.86 236.558 103.125 237.512 105.921 237.894C111.713 238.466 116.839 237.449 121.366 234.968C133.815 222.945 139.873 215.375 139.873 212.639ZM209.708 217.665C209.708 219.446 204.449 222.69 193.265 227.907C181.481 233.695 170.83 237.449 161.443 239.23C154.653 240.375 149.26 237.13 148.927 231.596C148.927 229.115 153.854 223.072 163.24 213.403C172.694 204.179 179.018 198.963 182.28 197.754C184.144 197.181 185.076 197.945 185.076 200.426C185.076 201.444 180.816 206.215 172.294 214.612C163.84 222.627 159.646 227.907 159.646 229.688C159.646 231.66 161.709 232.232 166.236 231.405C172.095 230.26 179.884 227.398 189.603 222.754C199.323 218.237 204.249 215.82 204.449 215.757C207.844 215.184 209.708 215.82 209.708 217.665ZM204.516 179.179C200.588 179.752 198.524 178.543 198.524 175.044C198.524 171.546 199.989 169.701 204.316 168.874C207.312 168.301 209.975 170.273 209.975 173.199C210.307 176.571 208.111 178.606 204.516 179.243V179.179ZM271.887 178.416C264.098 189.675 255.577 200.998 245.591 210.286C234.007 220.273 223.089 226.189 212.171 228.225C206.38 229.37 202.785 225.362 202.518 220.273C202.518 217.792 204.582 214.166 208.577 209.586C212.504 205.324 217.031 201.444 222.823 197.436C229.547 192.729 235.272 189.93 239.799 189.23C242.196 188.657 243.793 189.484 243.793 191.711C243.793 194.128 241.397 196.545 236.737 198.326C229.747 200.871 225.752 202.589 225.486 203.161C217.564 208.95 213.703 213.594 213.703 217.029C213.703 218.619 215.167 219.255 218.496 218.619C228.215 216.774 239.466 205.515 252.115 189.611C264.897 173.581 274.284 162.512 280.408 153.543C291.659 137.258 302.91 118.937 307.703 109.586C311.365 102.334 313.495 96.2276 314.361 103.861C316.89 126.571 280.408 166.584 271.887 178.352V178.416ZM316.491 198.326C316.491 199.79 311.099 203.225 300.047 208.505C287.931 214.039 277.28 217.856 267.893 219.764C261.568 220.718 255.843 217.538 255.51 212.067C255.51 209.65 260.303 203.543 269.69 193.746C279.41 184.586 285.801 179.434 289.196 178.034C290.661 177.462 291.593 178.416 291.593 180.96C291.593 181.914 287.265 186.495 278.877 194.891C270.356 203.225 266.029 208.25 266.029 210.222C266.029 212.194 268.492 212.639 273.019 211.94C278.811 210.795 286.4 207.932 296.053 203.352C305.839 198.708 310.633 196.291 311.032 196.1C314.693 195.528 316.424 196.291 316.424 198.39L316.491 198.326ZM311.099 159.523C307.104 160.413 305.307 158.95 304.974 155.515C304.974 152.08 306.838 149.98 310.699 149.217C313.761 148.645 316.89 150.744 316.89 153.67C316.89 156.978 314.96 158.95 311.099 159.523ZM399.707 168.365C399.707 170.21 396.711 172.309 390.52 174.79C384.861 177.08 378.537 178.861 372.146 179.942C367.885 180.897 363.292 180.706 358.698 179.942C349.578 189.866 343.519 196.291 340.191 199.09C333.267 205.324 326.277 209.204 318.888 210.477C316.491 210.985 314.361 210.286 312.497 208.759C310.699 207.36 309.834 205.896 309.834 204.37C309.834 197.118 317.689 183.568 329.805 171.927C334.599 167.092 340.391 162.894 347.58 159.077C353.106 156.024 357.367 154.306 360.163 153.734C363.158 153.289 368.617 156.087 368.617 160.604C368.617 162.958 367.419 167.156 364.423 173.263C366.221 173.836 369.216 173.835 373.477 173.963C376.872 173.39 381.466 172.309 386.858 170.591C392.317 168.683 395.646 167.792 396.312 167.729C398.442 167.22 399.307 167.729 399.64 168.365H399.707ZM348.912 179.752C349.578 178.288 349.578 176.571 348.912 174.472C348.313 171.991 347.114 170.464 345.716 169.891C339.858 173.136 335.264 176.698 331.669 180.96C323.148 190.629 318.888 197.245 318.888 200.998C318.888 202.97 319.82 203.67 321.084 203.288C326.943 202.334 336.263 194.319 348.912 179.752ZM536.314 65.3117C536.314 66.902 531.121 73.5814 520.736 85.159C507.155 100.49 498.9 110.032 496.171 113.467C485.519 126.889 477.73 138.912 471.872 149.154C468.543 155.642 465.481 162.322 462.152 168.81C465.88 166.138 472.471 162.321 481.658 156.596C485.918 153.925 490.246 151.635 494.44 149.09C498.634 146.355 501.963 144.955 503.56 144.637C507.155 144.065 508.953 144.383 508.953 146.355C509.352 147.881 507.488 149.599 503.56 151.634C491.377 158.505 480.393 164.739 471.273 170.21C465.88 173.645 462.818 175.489 462.152 175.935C459.755 177.652 454.03 182.232 444.51 189.675C435.456 202.907 426.669 216.265 417.548 229.433C403.901 248.899 391.119 265.247 379.069 278.352C360.296 299.217 349.311 310.794 346.915 313.53C334.665 325.743 326.277 332.232 321.284 333.059C316.491 334.14 312.23 331.087 311.831 326.889C311.831 323.39 316.158 315.693 325.012 303.924C332.202 294 341.323 283.186 351.641 271.672C361.427 260.985 372.079 249.917 384.062 238.212C395.646 226.698 407.429 215.693 419.346 204.37C424.805 199.408 433.925 190.693 446.973 177.652C457.292 163.53 466.479 147.245 474.135 129.243C461.553 139.612 451.301 145.718 443.245 147.245C439.65 147.818 435.124 145.146 435.124 142.411C434.791 135.986 440.25 124.535 451.833 107.869C469.076 82.6779 486.118 68.7467 502.495 65.8205C508.287 64.9936 514.878 66.1387 521.868 69.2557C527.127 64.2303 530.522 61.4312 531.92 60.9859C534.65 60.6042 536.247 62.0038 536.247 65.248L536.314 65.3117ZM423.873 208.568C416.683 214.611 406.231 224.217 393.249 237.449C379.069 251.443 367.219 263.657 358.099 273.772C329.939 304.942 317.157 322.117 319.287 325.553C319.82 326.379 321.084 326.698 323.148 326.38C326.277 325.743 332.269 320.591 341.655 310.794C351.641 299.917 361.627 289.102 371.613 278.225C389.854 258.505 407.23 235.476 423.873 208.505V208.568ZM515.543 76.1895C512.481 73.5177 508.22 72.7543 502.295 73.3268C490.978 74.5991 477.131 85.9222 460.621 107.551C456.693 112.512 452.699 119.001 449.037 126.825C445.709 133.123 444.244 136.749 444.244 137.703C444.244 139.612 445.709 140.375 448.172 139.993C451.234 139.421 458.224 134.332 468.876 124.917C477.863 116.52 487.916 106.851 498.234 95.7822C502.495 91.2021 508.021 84.6501 515.543 76.2532V76.1895ZM601.156 136.94C601.156 138.912 593.567 143.81 578.721 152.716C567.803 159.077 557.751 163.148 547.498 164.993C544.103 165.566 541.973 164.993 540.109 163.148C538.91 161.558 537.646 159.65 536.447 158.123C523.665 168.683 511.815 174.79 500.631 176.889C492.509 178.416 487.25 175.044 487.25 169.573C487.05 163.276 491.577 156.851 500.365 149.917C510.417 142.474 522.8 137.322 537.978 134.459C543.77 133.505 548.164 134.459 551.293 137.322C553.49 135.604 555.886 134.713 558.616 134.141C560.813 133.759 561.678 135.286 562.011 138.339C562.011 139.103 559.814 141.456 555.287 145.337C551.093 149.217 548.83 152.016 548.83 153.925C548.83 156.596 550.028 157.996 551.959 157.614C560.48 156.024 568.402 152.97 575.925 148.2C588.973 140.184 596.695 135.922 598.493 135.604C600.29 135.286 601.156 135.858 601.156 136.94ZM538.311 144.383C538.711 143.174 537.113 142.919 534.45 143.492C528.325 144.383 521.069 147.5 512.481 152.589C502.495 158.378 497.635 163.53 497.635 167.729C497.635 169.255 498.834 170.21 500.431 170.019C504.892 169.828 511.882 166.965 521.069 161.431C531.654 155.324 537.113 149.726 538.311 144.319V144.383ZM670.392 82.8688C670.392 86.622 667.129 90.8205 659.806 95.2734C652.75 99.8535 645.826 104.052 638.903 108.251C633.377 111.24 625.521 116.456 615.536 123.836C602.754 135.222 596.163 142.983 596.363 147.245C596.363 149.726 597.894 150.68 600.956 150.235C605.217 149.344 616.135 144.891 632.778 136.495C634.908 135.222 639.435 132.869 645.76 129.306C650.686 126.253 653.748 124.726 654.947 124.535C656.478 124.281 656.744 124.853 657.01 126.189C657.01 128.034 654.547 130.451 649.754 133.505C645.16 136.113 640.301 138.848 635.774 141.457C629.116 145.719 620.529 149.662 611.142 153.225C603.619 156.151 597.561 157.996 593.3 158.823C587.575 159.904 583.314 156.724 582.915 151.316C582.915 148.518 589.04 140.82 601.156 128.607C611.475 118.174 619.131 110.859 624.523 106.406C643.696 90.7569 657.676 82.1055 666.131 80.5788C668.927 80.0063 670.125 80.7697 670.325 82.8053L670.392 82.8688ZM814.255 6.85131C814.255 8.95054 810.261 14.4848 802.405 22.8817C793.285 32.2965 782.7 42.22 770.251 51.8256C762.328 58.2505 749.879 66.3293 733.436 76.0621C710.468 89.6117 697.62 97.309 695.822 99.0266C693.692 100.617 690.696 103.225 686.702 106.724C681.642 111.367 677.249 115.693 673.654 119.892C663.069 132.423 657.942 139.866 657.942 142.411C657.942 143.874 658.941 144.446 660.672 144.446C663.668 143.81 668.527 141.266 674.852 136.622C680.644 132.296 686.436 127.907 692.161 123.708C693.958 121.546 696.954 118.365 701.215 114.357C708.205 107.869 713.398 104.243 716.393 103.67C718.857 103.225 719.988 104.179 720.388 106.533C720.388 110.795 715.861 116.838 706.407 124.472C708.804 125.871 712.465 126.062 716.992 125.235C723.051 124.154 729.109 122.182 736.165 119.383C742.756 116.647 746.817 114.993 748.215 114.803C749.813 114.421 750.678 115.502 750.678 117.856C750.678 118.683 745.752 121.1 736.165 125.044C725.78 129.115 718.257 131.724 713.398 132.551C708.538 133.505 702.413 132.551 694.557 130.133L676.583 142.474C669.393 146.863 663.002 149.853 657.876 150.871C654.88 151.253 652.483 150.68 650.02 149.217C648.489 148.008 647.291 146.673 647.291 145.464C647.291 141.647 649.088 137.322 653.282 131.724C654.281 130.706 658.542 125.617 666.131 116.329C670.125 112.067 674.253 107.741 679.113 103.543C688.3 95.655 693.159 91.6475 693.426 91.1386L717.392 68.2379C730.44 55.9605 741.691 45.8461 751.677 38.0217C769.252 24.2176 779.238 16.266 782.3 13.7214C793.884 5.51535 801.473 0.998924 805.667 0.108341C809.928 -0.655015 813.856 2.71645 814.255 7.04214V6.85131ZM805.667 8.31428C805.667 7.36009 805.068 7.04207 804.469 7.1693C799.276 8.12349 783.299 19.8919 756.27 42.729C750.146 47.6272 738.629 58.6323 721.053 75.5533C731.306 70.2098 738.296 66.1386 742.623 63.7849C751.078 58.6322 758.734 53.4797 765.923 48.009C774.445 41.1387 783.499 33.1235 792.286 24.3449C801.074 15.5663 805.667 10.2228 805.667 8.2508V8.31428ZM854.532 90.3751C854.532 92.2835 847.275 97.4999 832.097 106.406C821.445 112.513 811.193 116.711 800.941 118.492C797.878 119.128 795.415 118.492 793.551 116.711C792.286 115.057 791.487 113.276 790.222 111.813C777.44 122.309 765.324 128.416 754.073 130.515C745.885 131.915 741.092 128.607 740.759 123.072C740.426 117.029 745.086 110.286 753.807 103.543C763.793 95.9095 776.575 90.8841 791.62 88.1488C797.479 87.0037 801.673 87.9578 804.868 91.0112C807.265 89.2937 809.262 88.1488 812.391 87.5763C814.189 87.3218 815.054 88.7211 815.454 91.9654C815.454 92.7924 813.257 95.0189 809.062 99.0266C804.469 102.652 802.405 105.515 802.405 107.487C802.405 110.35 803.67 111.686 805.534 111.304C813.922 109.777 822.177 106.597 829.767 101.826C842.748 93.8739 850.138 89.6755 851.869 89.3574C853.733 88.9758 854.532 89.3574 854.532 90.5024V90.3751ZM792.086 97.8179C792.086 96.6729 790.822 96.3549 787.826 96.9274C781.635 98.0088 774.445 101.062 765.923 106.024C755.871 111.876 751.078 116.965 751.344 121.164C751.344 122.754 752.276 123.645 754.007 123.454C758.268 123.327 765.258 120.591 774.644 115.057C785.03 108.95 790.822 103.161 792.02 97.8179H792.086ZM946.469 78.8611C946.469 79.6881 944.471 81.5965 940.078 84.4591C936.216 87.3217 931.889 89.8027 927.695 92.0928C912.849 99.281 901.266 103.734 892.811 105.261C886.686 106.406 881.826 104.179 881.56 99.5354C881.56 98.3903 883.424 95.5279 887.019 90.9478C890.082 87.5127 893.077 84.0774 896.073 80.0698C887.885 82.9324 878.831 87.3218 867.913 94.0647C851.27 104.306 842.083 109.713 840.618 109.904C837.822 110.477 836.291 109.523 836.291 106.533C836.024 105.133 838.421 101.762 843.214 96.9274C848.407 92.0928 850.804 88.8485 850.804 87.5126C850.67 81.2785 850.204 77.6527 857.594 76.2532C861.389 75.6806 863.586 79.1156 862.986 83.6958C862.654 86.0495 861.788 88.7213 860.19 91.3294C865.117 88.4668 873.305 83.9503 884.556 77.9706C896.339 72.3091 905.46 68.9376 911.784 67.8562C914.58 67.4745 915.779 68.4287 915.779 70.9732C916.045 71.8638 913.981 73.963 909.987 77.1437C904.594 81.1513 901.199 84.2047 899.734 86.0494C893.943 92.7288 890.88 96.8001 891.213 97.8816C891.213 99.3447 893.011 99.7899 896.606 99.0266C902.131 98.0724 910.985 94.7009 923.368 89.1029C926.43 87.6398 930.558 85.286 936.15 82.0418C940.943 79.4973 943.34 78.0343 944.005 77.8435C945.603 77.4618 946.402 78.0343 946.402 78.9885L946.469 78.8611ZM994.8 73.8993C994.8 75.4896 989.341 78.8612 978.49 84.0775C966.307 89.6754 955.722 93.4286 946.335 95.2097C939.545 96.482 934.153 93.2378 933.82 87.7034C933.82 85.1589 938.68 79.052 948.333 69.51C957.786 60.1589 963.911 55.0063 967.506 53.6704C969.303 53.0979 969.969 54.0521 969.969 56.4694C969.969 57.5508 965.775 62.0673 957.187 70.5278C948.732 78.8611 944.538 83.8867 944.538 85.7951C944.538 87.7035 946.935 88.276 951.461 87.3218C957.187 86.3676 964.776 83.4413 974.496 78.8611C984.149 74.1538 989.075 71.8002 989.341 71.673C992.936 71.1005 994.534 71.8001 994.8 73.8993ZM989.275 35.159C985.347 35.8587 983.483 34.7138 983.283 31.2787C983.283 27.6528 985.081 25.6171 989.009 25.0445C992.004 24.2176 994.734 26.3168 995 29.243C995 32.6145 993.203 34.5865 989.208 35.159H989.275Z" fill="white"/>
</svg>
