<svg viewBox="0 0 120 120" fill="none" xmlns="http://www.w3.org/2000/svg">
<g clip-path="url(#clip0_5264_2440)">
<path d="M22 -18H117.227C135.053 -18 149.504 -3.54925 149.504 14.2767V105.141C149.504 105.141 92.5083 86.9974 65.659 61C38.8098 35.0026 22 -18 22 -18Z" fill="white"/>
<path opacity="0.4" d="M104.181 38.3397C104.557 38.7357 104.781 39.2533 104.781 39.7989V39.8202C104.781 40.3658 104.558 40.8853 104.173 41.2725C100.633 44.8405 95.5585 51.0517 85.7556 51.0517C75.9527 51.0517 70.8784 44.8405 67.3377 41.2725C66.9534 40.8853 66.7305 40.3658 66.7305 39.8202L66.7305 39.7989C66.7305 39.2533 66.9544 38.7357 67.3297 38.3397C70.8707 34.6042 75.9453 26.8379 85.7556 26.8379C95.5659 26.8379 100.64 34.6042 104.181 38.3397Z" fill="#00AEEF"/>
<ellipse cx="85.7551" cy="38.9445" rx="5.18867" ry="5.18867" fill="#00AEEF"/>
<path fill-rule="evenodd" clip-rule="evenodd" d="M85.7542 15.1621C86.4706 15.1621 87.0514 15.7429 87.0514 16.4593V19.9184C87.0514 20.6348 86.4706 21.2156 85.7542 21.2156C85.0378 21.2156 84.457 20.6348 84.457 19.9184V16.4593C84.457 15.7429 85.0378 15.1621 85.7542 15.1621Z" fill="#00AEEF"/>
<path fill-rule="evenodd" clip-rule="evenodd" d="M69.2745 20.7315C69.781 20.2249 70.6024 20.2249 71.1089 20.7315L73.7033 23.3258C74.2098 23.8324 74.2098 24.6537 73.7033 25.1603C73.1967 25.6669 72.3754 25.6669 71.8688 25.1603L69.2745 22.566C68.7679 22.0594 68.7679 21.2381 69.2745 20.7315ZM102.241 20.7315C102.748 21.2381 102.748 22.0594 102.241 22.566L99.6466 25.1603C99.14 25.6669 98.3187 25.6669 97.8121 25.1603C97.3056 24.6537 97.3056 23.8324 97.8121 23.3258L100.406 20.7315C100.913 20.2249 101.734 20.2249 102.241 20.7315Z" fill="#00AEEF"/>
</g>
<defs>
<clipPath id="clip0_5264_2440">
<rect width="120" height="120" fill="white"/>
</clipPath>
</defs>
</svg>
