<svg width="32" height="32" viewBox="0 0 32 32" fill="none" xmlns="http://www.w3.org/2000/svg">
<path d="M27.1984 3C28.7448 3 29.9984 4.2536 29.9984 5.8L29.9984 25.4C29.9984 26.9464 28.7448 28.2 27.1984 28.2C25.652 28.2 24.3984 26.9464 24.3984 25.4L24.3984 5.8C24.3984 4.2536 25.652 3 27.1984 3Z" fill="#ffffff"/>
<path d="M4.8 14.1992C6.3464 14.1992 7.6 15.4528 7.6 16.9992L7.6 25.3992C7.6 26.9456 6.3464 28.1992 4.8 28.1992C3.2536 28.1992 2 26.9456 2 25.3992L2 16.9992C2 15.4528 3.2536 14.1992 4.8 14.1992Z" fill="#ffffff"/>
<path d="M16.0008 8.59961C17.5472 8.59961 18.8008 9.85321 18.8008 11.3996L18.8008 25.3996C18.8008 26.946 17.5472 28.1996 16.0008 28.1996V28.1996C14.4544 28.1996 13.2008 26.946 13.2008 25.3996L13.2008 11.3996C13.2008 9.85321 14.4544 8.59961 16.0008 8.59961V8.59961Z" fill="#ffffff"/>
</svg>
