<svg  viewBox="0 0 571 256" fill="none" xmlns="http://www.w3.org/2000/svg">
<path d="M7.5 180L0 256C0 256 3.5 250 10.5 244.5C17.5 239 28.5 233 36.5 229.5C44.5 226 67 219 99 217L101.021 216.874C132.305 214.917 162.621 213.021 191.5 214C221 215 234 217 256.5 218C279 219 350 228 373.5 232.5C397 237 422 240.5 451.5 240.5C481 240.5 482.5 239 497.5 237.5C512.5 236 536 228 550.5 220.5C565 213 570 202.5 570 201.5C570 200.5 570.5 194 570 188C569.5 182 548.5 138 548.5 138C548.5 138 554 132.5 561 122.5C568 112.5 568.5 102 568.5 99.5C568.5 97 552 69 549.5 59C547 49 546 36.5 545.5 29.5C545 22.5 542 0.5 542 0.5C542 0.5 540.5 14 539 19.5C537.5 25 530 32.5 528 35C526 37.5 510 49 510 49C510 49 482.5 64.5 477 69C471.5 73.5 469.5 76 468 79C466.5 82 467.5 87 467.5 87L477 111.5C477 111.5 463 114.5 452 114.5C441 114.5 427.5 114 414.5 113.5C401.5 113 323.5 102.5 323.5 102.5C323.5 102.5 262 91 246.5 89C231 87 211 85 189.5 83C168 81 137.5 80.5 137.5 80.5C137.5 80.5 105.5 82.5 84 89C62.5 95.5 45 106.5 31 121C17 135.5 13 150.5 10.5 159.5C8 168.5 7.5 180 7.5 180Z" fill="black"/>
</svg>
