<svg width="32" height="32" viewBox="0 0 32 32" fill="none" xmlns="http://www.w3.org/2000/svg">
<path opacity="0.4" d="M2 7.6C2 4.50721 4.50721 2 7.6 2H24.4C27.4928 2 30 4.50721 30 7.6V24.4C30 27.4928 27.4928 30 24.4 30H7.6C4.50721 30 2 27.4928 2 24.4V7.6Z" fill="#00AEEF"/>
<path fill-rule="evenodd" clip-rule="evenodd" d="M15.9992 9.38086C16.5791 9.38086 17.0492 9.85096 17.0492 10.4309V16.6741L20.5313 17.8347C21.0814 18.0181 21.3787 18.6128 21.1953 19.1629C21.012 19.713 20.4173 20.0104 19.8672 19.827L15.6672 18.427C15.2384 18.2841 14.9492 17.8828 14.9492 17.4309V10.4309C14.9492 9.85096 15.4193 9.38086 15.9992 9.38086Z" fill="#00AEEF"/>
</svg>
